<svg width="20" height="23" viewBox="0 0 20 23" fill="none" xmlns="http://www.w3.org/2000/svg">
<path d="M10.0044 6.29015C7.16678 6.29015 4.87794 8.57861 4.87794 11.4158C4.87794 14.2529 7.16678 16.5414 10.0044 16.5414C12.842 16.5414 15.1309 14.2529 15.1309 11.4158C15.1309 8.57861 12.842 6.29015 10.0044 6.29015ZM10.0044 14.7481C8.17066 14.7481 6.67154 13.2537 6.67154 11.4158C6.67154 9.57786 8.1662 8.08345 10.0044 8.08345C11.8426 8.08345 13.3373 9.57786 13.3373 11.4158C13.3373 13.2537 11.8382 14.7481 10.0044 14.7481ZM16.5363 6.08049C16.5363 6.74517 16.0009 7.27602 15.3406 7.27602C14.6758 7.27602 14.1449 6.7407 14.1449 6.08049C14.1449 5.42027 14.6803 4.88495 15.3406 4.88495C16.0009 4.88495 16.5363 5.42027 16.5363 6.08049ZM19.9317 7.29386C19.8558 5.69238 19.4899 4.27381 18.3165 3.10504C17.1476 1.93628 15.7287 1.57048 14.127 1.49018C12.4762 1.3965 7.52818 1.3965 5.87736 1.49018C4.28008 1.56602 2.86126 1.93181 1.68784 3.10058C0.514419 4.26935 0.153023 5.68792 0.0727129 7.2894C-0.0209824 8.93995 -0.0209824 13.8871 0.0727129 15.5377C0.148561 17.1391 0.514419 18.5577 1.68784 19.7265C2.86126 20.8953 4.27562 21.2611 5.87736 21.3414C7.52818 21.435 12.4762 21.435 14.127 21.3414C15.7287 21.2655 17.1476 20.8997 18.3165 19.7265C19.4855 18.5577 19.8513 17.1391 19.9317 15.5377C20.0253 13.8871 20.0253 8.94441 19.9317 7.29386ZM17.799 17.3087C17.451 18.183 16.7772 18.8566 15.8983 19.209C14.5821 19.731 11.4589 19.6105 10.0044 19.6105C8.5499 19.6105 5.42227 19.7265 4.11053 19.209C3.23604 18.8611 2.56233 18.1875 2.20986 17.3087C1.68784 15.9927 1.80831 12.87 1.80831 11.4158C1.80831 9.9615 1.6923 6.83438 2.20986 5.52287C2.55787 4.64852 3.23158 3.97492 4.11053 3.62251C5.42673 3.10058 8.5499 3.22103 10.0044 3.22103C11.4589 3.22103 14.5866 3.10504 15.8983 3.62251C16.7728 3.97046 17.4465 4.64406 17.799 5.52287C18.321 6.83885 18.2005 9.9615 18.2005 11.4158C18.2005 12.87 18.321 15.9971 17.799 17.3087Z" fill="white"/>
</svg>
